<svg height="512" viewBox="0 0 42 60" width="512" xmlns="http://www.w3.org/2000/svg"><g id="Page-1" fill="none" fill-rule="evenodd"><g id="074---Construction-Worker" transform="translate(-1)"><g id="Icons" transform="translate(1 1)"><rect id="Rectangle" fill="#fec108" height="4" rx="1" width="28" x="7" y="14"/><path id="Path" d="m34.0000099 14h-26.00001977c-.00737995-6.0267897 4.13428147-11.26599146 10.00000987-12.65v-.35c0-.55228475.4477153-1 1-1h4c.5522847 0 1 .44771525 1 1v.35c5.8657284 1.38400854 10.0073898 6.6232103 10.0000099 12.65z" fill="#ffdf00"/><path id="Path" d="m24.226 2.584c.2666667.144.5246667.296.774.456 3.7396725 2.38968625 6.001894 6.52201091 6 10.96h3.0000099c.0073799-6.0267897-4.1342815-11.26599146-10.0000099-12.65z" fill="#fec108"/><path id="Path" d="m36 23.01c-.0055131 2.2052328-1.7947604 3.9900069-4 3.99v2.18c.0007353 1.1572424-.4987611 2.2583221-1.37 3.02l-3.61 3.16-1.89 1.65c-.7270783.638892-1.6621027.9908594-2.63.99h-3c-.9678973.0008594-1.9029217-.351108-2.63-.99l-1.89-1.65-3.61-3.16c-.8712389-.7616779-1.37073532-1.8627576-1.37-3.02v-2.18c-2.20361615 0-3.99-1.7863838-3.99-3.99s1.78638385-3.99 3.99-3.99v-1.02h22v1.02c2.2052396-.0000069 3.9944869 1.7847672 4 3.99z" fill="#ffe0b2"/><path id="Path" d="m32 19.02v-1.02h-3v1.02c2.2036162 0 3.99 1.7863838 3.99 3.99s-1.7863838 3.99-3.99 3.99v2.18c.0007353 1.1572424-.4987611 2.2583221-1.37 3.02l-3.61 3.16-1.89 1.65c-.7270783.638892-1.6621027.9908594-2.63.9900016l3-.0000016c.9678973.0008594 1.9029217-.351108 2.63-.99l1.89-1.65 3.61-3.16c.8712389-.7616779 1.3707353-1.8627576 1.37-3.02v-2.18c2.2036162 0 3.99-1.7863838 3.99-3.99s-1.7863838-3.99-3.99-3.99z" fill="#dfc49c"/><path id="Path" d="m29 42s-2 3-8 3-8-3-8-3c1.58-1.58 1.92-4.61 1.98-6.64l1.89 1.65c.7270783.638892 1.6621027.9908594 2.63.99h3c.9678973.0008594 1.9029217-.351108 2.63-.99l1.89-1.65c.06 2.03.4 5.06 1.98 6.64z" fill="#dfc49c"/><path id="Path" d="m41 56.93c.017342.2765983-.0800779.548117-.2693114.7505968-.1892335.2024799-.4535506.3180198-.7306886.3194032h-5v-5c-.0032948-1.1032019-.8967981-1.9967052-2-2v-7.74c1.5719215.6236206 3.0033051 1.5552099 4.21 2.74 2.23 2.33 3.57 7.08 3.79 10.93z" fill="#ff9801"/><path id="Path" d="m37.21 46c-1.2066949-1.1847901-2.6380785-2.1163794-4.21-2.74v1.694c.4321293.313895.8369081.6638112 1.21 1.046 2.23 2.33 3.57 7.08 3.79 10.93.017342.2765983-.0800779.548117-.2693114.7505968-.1892335.2024799-.4535506.3180198-.7306886.3194032h3c.277138-.0013834.5414551-.1169233.7306886-.3194032.1892335-.2024798.2866534-.4739985.2693114-.7505968-.22-3.85-1.56-8.6-3.79-10.93z" fill="#f57c00"/><path id="Path" d="m9 43.26v7.74c-1.10320187.0032948-1.9967052.8967981-2 2v5h-5c-.27713799-.0013834-.54145514-.1169233-.73068862-.3194032-.18923347-.2024798-.28665337-.4739985-.26931138-.7505968.22-3.85 1.56-8.6 3.79-10.93 1.20669486-1.1847901 2.63807847-2.1163794 4.21-2.74z" fill="#ff9801"/><path id="Path" d="m13 42v9h-4v-9c0-.5522847.44771525-1 1-1h2c.5522847 0 1 .4477153 1 1z" fill="#0377bc"/><path id="Path" d="m33 42v9h-4v-9c0-.5522847.4477153-1 1-1h2c.5522847 0 1 .4477153 1 1z" fill="#0377bc"/><path id="Path" d="m29 42v9h-16v-9s2 3 8 3 8-3 8-3z" fill="#ff9801"/><path id="Path" d="m35 53v5h-28v-5c.0032948-1.1032019.89679813-1.9967052 2-2h24c1.1032019.0032948 1.9967052.8967981 2 2z" fill="#02a9f4"/><path id="Path" d="m33 51h-3c1.1032019.0032948 1.9967052.8967981 2 2v5h3v-5c-.0032948-1.1032019-.8967981-1.9967052-2-2z" fill="#0377bc"/></g><g id="Icons_copy" fill="#000"><path id="Path" d="m23 34h-2c-.5522847 0-1 .4477153-1 1s.4477153 1 1 1h2c.5522847 0 1-.4477153 1-1s-.4477153-1-1-1z"/><path id="Path" d="m17 22c-.5522847 0-1 .4477153-1 1v1c0 .5522847.4477153 1 1 1s1-.4477153 1-1v-1c0-.5522847-.4477153-1-1-1z"/><path id="Path" d="m27 25c.5522847 0 1-.4477153 1-1v-1c0-.5522847-.4477153-1-1-1s-1 .4477153-1 1v1c0 .5522847.4477153 1 1 1z"/><path id="Path" d="m21 29h2c.5522847 0 1-.4477153 1-1s-.4477153-1-1-1h-2c-.5522847 0-1 .4477153-1 1s.4477153 1 1 1z"/><path id="Shape" d="m35 43.627v-.627c0-1.1045695-.8954305-2-2-2h-2c-.3522496.0021571-.6975122.0984854-1 .279-.6165823-1.416659-.9413798-2.9430369-.955-4.488l3.248-2.843c1.0849282-.949555 1.707154-2.3212219 1.707-3.763v-1.285c1.9810319-.3980015 3.5254662-1.953151 3.9097616-3.9368873.3842955-1.9837362-.4676686-4.0031233-2.1567616-5.1121127.7532927-.3061412 1.2462545-1.0378753 1.247-1.851v-2c-.0023458-.7238889-.3970188-1.3895885-1.031-1.739-.2897724-5.93122678-4.3123757-11.02464993-10.015-12.681-.1978594-.92117905-1.0118117-1.57933911-1.954-1.58h-4c-.9421883.00066089-1.7561406.65882095-1.954 1.58-5.7026243 1.65635007-9.72522761 6.74977322-10.015 12.681-.63398123.3494115-1.02865418 1.0151111-1.031 1.739v2c.0011517.8127602.49404436 1.5439963 1.247 1.85-1.68979718 1.1087745-2.54229192 3.1285712-2.15794786 5.1127776.38434407 1.9842064 1.92935938 3.5396014 3.91094786 3.9372224v1.286c.0000984 1.4419364.6227003 2.8136291 1.708 3.763l3.248 2.843c-.0140701 1.5446945-.3392054 3.0707219-.956 4.487-.3024878-.1805146-.6477504-.2768429-1-.279h-2c-1.1045695 0-2 .8954305-2 2v.627c-1.46552196.6431857-2.79906621 1.5525591-3.933 2.682-2.501 2.613-3.844 7.691-4.067 11.569-.0278898.5544844.17186326 1.0963101.553 1.5.37542967.3987074.89935842.6239207 1.447.622h38c.5471438.001903 1.0706349-.2229158 1.446-.621.3826397-.4052436.5828135-.9493984.554-1.506-.222-3.873-1.565-8.951-4.064-11.562-1.1347008-1.1304091-2.4692864-2.0404771-3.936-2.684zm-4-.627h2v8h-2zm-16 8v-5.8c2.1087345 1.2677355 4.5412974 1.8932517 7 1.8 2.4587026.0932517 4.8912655-.5322645 7-1.8v5.8zm-6-33v-2h26v2zm5-11.96v4.96c0 .5522847.4477153 1 1 1s1-.4477153 1-1v-6.393c.6369181-.36677334 1.3064457-.67375176 2-.917v5.31c0 .55228475.4477153 1 1 1s1-.44771525 1-1v-7h4v7c0 .55228475.4477153 1 1 1s1-.44771525 1-1v-5.31c.6935543.24324824 1.3630819.55022666 2 .917v6.393c0 .5522847.4477153 1 1 1s1-.4477153 1-1v-4.96c2.2941364 2.04541969 3.7117065 4.8963187 3.958 7.96h-23.916c.2462935-3.0636813 1.6638636-5.91458031 3.958-7.96zm-2 24.145v-2.185c0-.5522847-.4477153-1-1-1-1.46082505.0122515-2.71543728-1.0355973-2.96365029-2.4752327-.24821301-1.4396355.58306579-2.8471206 1.96365029-3.3247673v1.8c0 .5522847.4477153 1 1 1s1-.4477153 1-1v-3h20v3c0 .5522847.4477153 1 1 1s1-.4477153 1-1v-1.8c1.3805845.4776467 2.2118633 1.8851318 1.9636503 3.3247673-.248213 1.4396354-1.5028252 2.4874842-2.9636503 2.4752327-.5522847 0-1 .4477153-1 1v2.185c-.0003401.8649143-.3739559 1.6875981-1.025 2.257l-5.5 4.816c-.5470172.477905-1.2486249.7414964-1.975.742h-3c-.7264576-.0000497-1.4282196-.263699-1.975-.742l-5.5-4.816c-.6510441-.5694019-1.0246599-1.3920857-1.025-2.257zm5.211 8.579c.9107059.7963227 2.0792418 1.2354563 3.289 1.236h3c1.2110366-.0001207 2.3809729-.4392465 3.293-1.236l.382-.335c.1337391 1.6104955.6496815 3.1658647 1.505 4.537-.845.752-2.843 2.034-6.68 2.034s-5.84-1.285-6.678-2.033c.8558309-1.3717014 1.3721181-2.9277624 1.506-4.539zm-6.211 4.236h2v8h-2zm-8 14.986c.193-3.392 1.376-8.061 3.516-10.3.72888835-.7333846 1.56678585-1.3496643 2.484-1.827v5.325c-1.19435087.4222546-1.99474861 1.5492146-2 2.816v4zm6 .014v-4c0-.5522847.44771525-1 1-1h24c.5522847 0 1 .4477153 1 1v4zm28 0v-4c-.0052514-1.2667854-.8056491-2.3937454-2-2.816v-5.325c.9185724.478667 1.7575069 1.0966517 2.487 1.832 2.138 2.234 3.321 6.903 3.513 10.309z" fill-rule="nonzero"/><path id="Path" d="m19.586 32.6c.7684038.3005812 1.5891756.4444033 2.414.423.8243268.0215291 1.6446668-.121597 2.413-.421.3256476-.1475507.547841-.4576241.5828822-.8134185.0350411-.3557944-.1223936-.7032563-.413-.9115-.2906065-.2082437-.6702346-.2456322-.9958822-.0980815-1.03278.3244797-2.14022.3244797-3.173 0-.5028553-.2286459-1.0958541-.0063553-1.3245.4965s-.0063553 1.0958541.4965 1.3245z"/></g></g></g></svg>