<?xml version="1.0" standalone="no"?>
<!DOCTYPE svg PUBLIC "-//W3C//DTD SVG 20010904//EN"
 "http://www.w3.org/TR/2001/REC-SVG-20010904/DTD/svg10.dtd">
<svg version="1.0" xmlns="http://www.w3.org/2000/svg"
 width="512.000000pt" height="512.000000pt" viewBox="0 0 512.000000 512.000000"
 preserveAspectRatio="xMidYMid meet">

<g transform="translate(0.000000,512.000000) scale(0.100000,-0.100000)"
fill="#000000" stroke="none">
<path d="M910 4674 c-177 -46 -335 -175 -415 -339 -70 -141 -66 -20 -63 -1801
l3 -1609 26 -67 c38 -98 86 -172 155 -242 70 -69 144 -117 242 -155 l67 -26
1625 0 1625 0 70 22 c188 60 337 204 414 401 l26 67 0 1280 0 1280 -22 70
c-40 127 -78 174 -433 536 -387 396 -487 487 -585 534 -140 68 -69 65 -1440
64 -1048 0 -1249 -3 -1295 -15z m582 -716 c3 -396 4 -415 25 -471 43 -115 138
-214 250 -258 l58 -24 704 -3 c483 -2 721 1 758 8 168 35 300 172 332 344 6
35 11 188 11 370 l0 311 341 -340 c237 -237 349 -355 367 -390 l27 -50 0
-1240 0 -1240 -24 -45 c-32 -61 -86 -117 -146 -148 -47 -25 -61 -27 -202 -30
l-152 -4 -3 529 c-3 516 -3 529 -25 581 -32 80 -97 158 -166 203 -112 73 -56
69 -1089 69 -903 0 -930 -1 -985 -20 -121 -42 -218 -134 -266 -252 -22 -52
-22 -65 -25 -581 l-3 -529 -152 4 c-142 3 -155 5 -203 30 -28 15 -71 49 -96
76 -84 95 -78 -44 -78 1706 0 1776 -10 1607 95 1711 90 90 103 93 397 94 l247
1 3 -412z m1818 37 c0 -413 -2 -430 -59 -459 -26 -14 -111 -16 -691 -16 -580
0 -665 2 -691 16 -57 29 -59 46 -59 459 l0 375 750 0 750 0 0 -375z m153
-2196 c57 -26 57 -23 57 -558 l0 -491 -960 0 -960 0 0 491 c0 441 2 494 17
519 9 16 26 33 37 39 30 14 1777 15 1809 0z"/>
</g>
</svg>
